<svg width="276" height="80" viewBox="0 0 276 80" fill="none" xmlns="http://www.w3.org/2000/svg">
<rect width="276" height="80" rx="20" fill="#FFD74B"/>
<path d="M46.1552 45.656C46.1552 46.072 45.9872 46.44 45.6512 46.76C45.3152 47.064 44.9232 47.216 44.4752 47.216C44.0272 47.216 43.6352 47.064 43.2992 46.76C42.9632 46.44 42.7952 46.072 42.7952 45.656V33.104H37.6832V45.656C37.6832 46.072 37.5152 46.44 37.1792 46.76C36.8432 47.064 36.4512 47.216 36.0032 47.216C35.5392 47.216 35.1392 47.064 34.8032 46.76C34.4832 46.44 34.3232 46.072 34.3232 45.656V31.616C34.3232 31.2 34.4832 30.84 34.8032 30.536C35.1392 30.216 35.5392 30.056 36.0032 30.056H44.4752C44.9232 30.056 45.3152 30.216 45.6512 30.536C45.9872 30.84 46.1552 31.2 46.1552 31.616V45.656ZM57.7985 45.92C56.8865 46.752 55.6065 47.168 53.9585 47.168C52.3105 47.168 51.0305 46.752 50.1185 45.92C49.2065 45.088 48.7505 44.016 48.7505 42.704V39.128C48.7505 37.816 49.2065 36.744 50.1185 35.912C51.0305 35.08 52.3105 34.664 53.9585 34.664C55.6065 34.664 56.8865 35.08 57.7985 35.912C58.7105 36.744 59.1665 37.816 59.1665 39.128V42.704C59.1665 44.016 58.7105 45.088 57.7985 45.92ZM52.5425 43.904C52.8785 44.192 53.3505 44.336 53.9585 44.336C54.5665 44.336 55.0305 44.192 55.3505 43.904C55.6865 43.616 55.8545 43.216 55.8545 42.704V39.104C55.8545 38.608 55.6865 38.216 55.3505 37.928C55.0305 37.64 54.5665 37.496 53.9585 37.496C53.3505 37.496 52.8785 37.64 52.5425 37.928C52.2225 38.216 52.0625 38.608 52.0625 39.104V42.704C52.0625 43.216 52.2225 43.616 52.5425 43.904ZM64.8165 34.88H70.8165C71.3125 34.88 71.6725 35.04 71.8965 35.36C72.1205 35.68 72.2325 36.016 72.2325 36.368V44.288H72.4005C72.8965 44.288 73.2565 44.448 73.4805 44.768C73.7045 45.088 73.8165 45.424 73.8165 45.776V48.872C73.8165 49.288 73.6565 49.64 73.3365 49.928C73.0165 50.216 72.6245 50.36 72.1605 50.36C71.6965 50.36 71.3045 50.216 70.9845 49.928C70.6645 49.64 70.5045 49.288 70.5045 48.872V47H63.8805V48.872C63.8805 49.288 63.7205 49.64 63.4005 49.928C63.0805 50.216 62.6885 50.36 62.2245 50.36C61.7605 50.36 61.3685 50.216 61.0485 49.928C60.7285 49.64 60.5685 49.288 60.5685 48.872V45.776C60.5685 45.44 60.6725 45.112 60.8805 44.792C61.1045 44.456 61.4725 44.288 61.9845 44.288C62.7045 43.712 63.1125 42.512 63.2085 40.688L63.4245 36.32C63.4405 35.952 63.5765 35.624 63.8325 35.336C64.1045 35.032 64.4325 34.88 64.8165 34.88ZM66.4005 40.736C66.3205 42.176 66.0725 43.36 65.6565 44.288H68.9205V37.592H66.5205L66.4005 40.736ZM81.1395 47.144C80.4195 47.144 79.7235 46.984 79.0515 46.664V50.624C79.0515 51.04 78.8995 51.384 78.5955 51.656C78.3075 51.944 77.9075 52.088 77.3955 52.088C76.8835 52.088 76.4755 51.944 76.1715 51.656C75.8835 51.384 75.7395 51.04 75.7395 50.624V38.432C75.7395 37.936 75.6515 37.56 75.4755 37.304C75.2515 37.016 75.1395 36.76 75.1395 36.536C75.1395 36.104 75.2995 35.752 75.6195 35.48C75.9555 35.208 76.3235 35.072 76.7235 35.072C77.1875 35.072 77.6035 35.296 77.9715 35.744C79.2195 35.04 80.3475 34.688 81.3555 34.688C82.7155 34.688 83.7795 35.12 84.5475 35.984C85.3315 36.848 85.7235 37.984 85.7235 39.392V42.176C85.7235 45.488 84.1955 47.144 81.1395 47.144ZM79.0515 38.432V44.096C79.7395 44.304 80.3235 44.408 80.8035 44.408C81.3795 44.408 81.7875 44.232 82.0275 43.88C82.2835 43.512 82.4115 42.944 82.4115 42.176V39.392C82.4115 38.112 81.8915 37.472 80.8515 37.472C80.3715 37.472 79.7555 37.64 79.0035 37.976C79.0355 38.2 79.0515 38.352 79.0515 38.432ZM96.9392 45.92C96.0272 46.752 94.7472 47.168 93.0992 47.168C91.4512 47.168 90.1712 46.752 89.2592 45.92C88.3472 45.088 87.8912 44.016 87.8912 42.704V39.128C87.8912 37.816 88.3472 36.744 89.2592 35.912C90.1712 35.08 91.4512 34.664 93.0992 34.664C94.7472 34.664 96.0272 35.08 96.9392 35.912C97.8512 36.744 98.3072 37.816 98.3072 39.128V42.704C98.3072 44.016 97.8512 45.088 96.9392 45.92ZM91.6832 43.904C92.0192 44.192 92.4912 44.336 93.0992 44.336C93.7072 44.336 94.1712 44.192 94.4912 43.904C94.8272 43.616 94.9952 43.216 94.9952 42.704V39.104C94.9952 38.608 94.8272 38.216 94.4912 37.928C94.1712 37.64 93.7072 37.496 93.0992 37.496C92.4912 37.496 92.0192 37.64 91.6832 37.928C91.3632 38.216 91.2032 38.608 91.2032 39.104V42.704C91.2032 43.216 91.3632 43.616 91.6832 43.904ZM100.237 42.704V36.128C100.237 34.496 100.677 33.16 101.557 32.12C102.453 31.08 103.805 30.464 105.613 30.272L105.781 30.248C105.909 30.232 106.045 30.216 106.189 30.2C106.349 30.184 106.517 30.16 106.693 30.128C106.885 30.08 107.085 30.024 107.293 29.96C107.501 29.896 107.701 29.824 107.893 29.744C108.085 29.648 108.309 29.6 108.565 29.6C108.997 29.6 109.357 29.744 109.645 30.032C109.949 30.304 110.101 30.64 110.101 31.04C110.101 31.296 110.037 31.528 109.909 31.736C109.797 31.928 109.621 32.088 109.381 32.216C109.157 32.344 108.933 32.456 108.709 32.552C108.485 32.648 108.197 32.728 107.845 32.792C107.509 32.84 107.245 32.88 107.053 32.912C106.861 32.944 106.605 32.976 106.285 33.008C105.981 33.024 105.813 33.032 105.781 33.032C104.293 33.176 103.549 34.152 103.549 35.96C104.157 35.512 104.901 35.288 105.781 35.288C107.285 35.288 108.469 35.712 109.333 36.56C110.213 37.392 110.653 38.456 110.653 39.752V42.704C110.653 44.016 110.197 45.088 109.285 45.92C108.373 46.752 107.093 47.168 105.445 47.168C103.797 47.168 102.517 46.752 101.605 45.92C100.693 45.088 100.237 44.016 100.237 42.704ZM104.029 43.904C104.365 44.192 104.837 44.336 105.445 44.336C106.053 44.336 106.517 44.192 106.837 43.904C107.173 43.616 107.341 43.216 107.341 42.704V39.728C107.341 38.656 106.741 38.12 105.541 38.12C104.965 38.12 104.493 38.248 104.125 38.504C103.773 38.76 103.581 39.12 103.549 39.584V42.704C103.549 43.216 103.709 43.616 104.029 43.904ZM116.338 45.68C116.338 46.096 116.178 46.448 115.858 46.736C115.538 47.024 115.146 47.168 114.682 47.168C114.218 47.168 113.826 47.024 113.506 46.736C113.186 46.448 113.026 46.096 113.026 45.68V36.224C113.026 35.824 113.186 35.48 113.506 35.192C113.826 34.904 114.218 34.76 114.682 34.76C115.146 34.76 115.538 34.904 115.858 35.192C116.178 35.48 116.338 35.824 116.338 36.224V39.416H119.986V36.224C119.986 35.824 120.146 35.48 120.466 35.192C120.786 34.904 121.178 34.76 121.642 34.76C122.106 34.76 122.498 34.904 122.818 35.192C123.138 35.48 123.298 35.824 123.298 36.224V45.68C123.298 46.096 123.138 46.448 122.818 46.736C122.498 47.024 122.106 47.168 121.642 47.168C121.178 47.168 120.786 47.024 120.466 46.736C120.146 46.448 119.986 46.096 119.986 45.68V42.104H116.338V45.68ZM131.043 42.416C130.499 42.416 129.883 42.368 129.195 42.272V43.064C129.195 43.96 129.835 44.408 131.115 44.408C131.755 44.408 132.475 44.232 133.275 43.88C133.467 43.784 133.707 43.736 133.995 43.736C134.523 43.736 134.899 43.872 135.123 44.144C135.363 44.416 135.483 44.72 135.483 45.056C135.483 45.456 135.315 45.8 134.979 46.088C134.659 46.376 134.243 46.6 133.731 46.76C133.235 46.904 132.747 47.008 132.267 47.072C131.787 47.136 131.323 47.168 130.875 47.168C129.323 47.168 128.099 46.776 127.203 45.992C126.323 45.192 125.883 44.184 125.883 42.968V38.96C125.883 37.696 126.331 36.672 127.227 35.888C128.123 35.088 129.379 34.688 130.995 34.688C132.531 34.688 133.699 35.056 134.499 35.792C135.299 36.528 135.699 37.52 135.699 38.768C135.699 41.2 134.147 42.416 131.043 42.416ZM130.923 39.944C131.915 39.944 132.411 39.496 132.411 38.6C132.411 37.704 131.931 37.256 130.971 37.256C130.395 37.256 129.955 37.4 129.651 37.688C129.347 37.96 129.195 38.336 129.195 38.816V39.848C129.883 39.912 130.459 39.944 130.923 39.944ZM142.692 42.416C142.148 42.416 141.532 42.368 140.844 42.272V43.064C140.844 43.96 141.484 44.408 142.764 44.408C143.404 44.408 144.124 44.232 144.924 43.88C145.116 43.784 145.356 43.736 145.644 43.736C146.172 43.736 146.548 43.872 146.772 44.144C147.012 44.416 147.132 44.72 147.132 45.056C147.132 45.456 146.964 45.8 146.628 46.088C146.308 46.376 145.892 46.6 145.38 46.76C144.884 46.904 144.396 47.008 143.916 47.072C143.436 47.136 142.972 47.168 142.524 47.168C140.972 47.168 139.748 46.776 138.852 45.992C137.972 45.192 137.532 44.184 137.532 42.968V38.96C137.532 37.696 137.98 36.672 138.876 35.888C139.772 35.088 141.028 34.688 142.644 34.688C144.18 34.688 145.348 35.056 146.148 35.792C146.948 36.528 147.348 37.52 147.348 38.768C147.348 41.2 145.796 42.416 142.692 42.416ZM142.572 39.944C143.564 39.944 144.06 39.496 144.06 38.6C144.06 37.704 143.58 37.256 142.62 37.256C142.044 37.256 141.604 37.4 141.3 37.688C140.996 37.96 140.844 38.336 140.844 38.816V39.848C141.532 39.912 142.108 39.944 142.572 39.944Z" fill="#1D2E5B"/>
<path d="M240.294 40L230.161 46.0622V33.9378L240.294 40Z" fill="#1D2E5B"/>
</svg>
