<svg width="190" height="40" viewBox="0 0 190 40" fill="none" xmlns="http://www.w3.org/2000/svg">
<rect width="190" height="40" rx="20" fill="#FFD74B"/>
<path d="M43.7522 23.637H47.3732L47.9682 25.354C48.1382 25.83 48.6822 26.153 49.1242 26.153C49.8212 26.153 50.3482 25.711 50.3482 25.065C50.3482 24.98 50.3312 24.776 50.2972 24.691L46.9822 15.018C46.7442 14.338 46.4042 13.862 45.5882 13.862C44.7722 13.862 44.4322 14.355 44.2112 15.018L40.8962 24.691C40.8622 24.776 40.8452 24.98 40.8452 25.065C40.8452 25.711 41.4062 26.153 42.0692 26.153C42.4772 26.153 43.0212 25.847 43.1912 25.354L43.7522 23.637ZM46.7612 21.699H44.3812L45.2822 18.792C45.4352 18.299 45.5202 17.653 45.5882 17.126C45.6562 17.653 45.7412 18.299 45.8942 18.792L46.7612 21.699ZM54.0519 18.707V16.157H56.1259C57.0099 16.157 57.3159 16.735 57.3159 17.381C57.3159 18.299 56.6019 18.707 56.0069 18.707H54.0519ZM56.0579 20.883C56.9589 20.883 57.6389 21.427 57.6389 22.396C57.6389 23.28 57.0779 23.841 55.9559 23.841H54.0519V20.883H56.0579ZM55.8029 26C58.4209 26 60.0189 24.419 60.0189 22.43C60.0189 20.951 58.9649 20.186 57.9109 19.761C58.9309 19.268 59.6959 18.537 59.6959 17.347C59.6959 15.647 58.4209 14.015 55.8709 14.015H52.9979C52.2839 14.015 51.6719 14.542 51.6719 15.239V24.776C51.6719 25.439 52.2499 26 52.9979 26H55.8029ZM63.7093 25.065C63.7093 25.643 64.2363 26.153 64.8992 26.153C65.5453 26.153 66.0893 25.643 66.0893 25.065V16.174H67.8912C68.5373 16.174 69.0983 15.681 69.0983 15.103C69.0983 14.491 68.5033 14.015 67.8912 14.015H61.9072C61.2442 14.015 60.7172 14.627 60.7172 15.103C60.7172 15.681 61.2272 16.174 61.9072 16.174H63.7093V25.065ZM74.4129 26.153C77.3539 26.153 78.8329 24.164 78.8329 21.682V18.316C78.8329 15.902 77.5919 13.862 74.4129 13.862C71.2339 13.862 69.9929 15.902 69.9929 18.316V21.682C69.9929 24.164 71.4719 26.153 74.4129 26.153ZM74.4129 16.021C75.9089 16.021 76.4529 16.939 76.4529 18.316V21.682C76.4529 23.042 75.8069 23.994 74.4129 23.994C73.0189 23.994 72.3729 23.042 72.3729 21.682V18.316C72.3729 16.939 72.9169 16.021 74.4129 16.021ZM84.4999 21.92C87.1349 21.92 88.8349 20.509 88.8349 17.993C88.8349 15.919 87.6959 14.015 84.4999 14.015H82.0009C81.2869 14.015 80.6749 14.576 80.6749 15.239V25.031C80.6749 25.643 81.2359 26.153 81.8649 26.153C82.5109 26.153 83.0549 25.626 83.0549 25.031V21.92H84.4999ZM83.0549 16.174H84.4999C86.0979 16.174 86.4549 17.092 86.4549 17.976C86.4549 19.2 85.7749 19.761 84.4999 19.761H83.0549V16.174ZM91.6282 26.153C92.0702 26.153 92.5462 25.915 92.7672 25.558L96.7112 18.69V25.048C96.7112 25.643 97.2722 26.153 97.9182 26.153C98.5812 26.153 99.0912 25.643 99.0912 25.048V15.018C99.0912 14.355 98.5642 13.862 97.8502 13.862C97.3912 13.862 96.9322 14.117 96.6942 14.491C95.1812 17.109 94.3142 18.656 92.7502 21.393V14.967C92.7502 14.372 92.1892 13.862 91.5432 13.862C90.8802 13.862 90.3702 14.372 90.3702 14.967V24.997C90.3702 25.626 90.8802 26.153 91.6282 26.153ZM108.571 22.549C108.571 21.172 107.721 20.339 106.361 19.795C107.602 19.166 108.265 18.367 108.265 17.228C108.265 15.664 106.99 13.862 104.474 13.862C102.893 13.862 100.7 14.576 100.7 15.698C100.7 16.259 101.244 16.684 101.788 16.684C102.264 16.684 102.638 16.361 103.029 16.191C103.403 16.021 103.879 15.919 104.338 15.919C105.545 15.919 105.953 16.633 105.953 17.262C105.953 18.333 104.746 18.826 103.607 18.86C103.097 18.877 102.434 18.911 102.434 19.88C102.434 20.866 103.097 20.934 103.743 20.968C105.052 21.053 106.208 21.359 106.208 22.498C106.208 23.382 105.511 24.096 104.236 24.096C102.927 24.096 102.349 23.331 101.618 23.331C101.04 23.331 100.513 23.79 100.513 24.351C100.513 25.558 102.91 26.153 104.406 26.153C106.956 26.153 108.571 24.436 108.571 22.549ZM112.366 23.637H115.987L116.582 25.354C116.752 25.83 117.296 26.153 117.738 26.153C118.435 26.153 118.962 25.711 118.962 25.065C118.962 24.98 118.945 24.776 118.911 24.691L115.596 15.018C115.358 14.338 115.018 13.862 114.202 13.862C113.386 13.862 113.046 14.355 112.825 15.018L109.51 24.691C109.476 24.776 109.459 24.98 109.459 25.065C109.459 25.711 110.02 26.153 110.683 26.153C111.091 26.153 111.635 25.847 111.805 25.354L112.366 23.637ZM115.375 21.699H112.995L113.896 18.792C114.049 18.299 114.134 17.653 114.202 17.126C114.27 17.653 114.355 18.299 114.508 18.792L115.375 21.699ZM128.667 14.967C128.667 14.372 128.123 13.862 127.477 13.862C126.848 13.862 126.287 14.372 126.287 14.967V23.841H122.666V14.967C122.666 14.372 122.122 13.862 121.476 13.862C120.813 13.862 120.286 14.372 120.286 14.967V24.895C120.286 25.49 120.813 26 121.476 26H127.647V27.564C127.647 28.159 128.208 28.669 128.837 28.669C129.466 28.669 130.027 28.159 130.027 27.564V24.929C130.027 24.351 129.466 23.841 128.837 23.841H128.667V14.967ZM132.485 26.153C132.927 26.153 133.403 25.915 133.624 25.558L137.568 18.69V25.048C137.568 25.643 138.129 26.153 138.775 26.153C139.438 26.153 139.948 25.643 139.948 25.048V15.018C139.948 14.355 139.421 13.862 138.707 13.862C138.248 13.862 137.789 14.117 137.551 14.491C136.038 17.109 135.171 18.656 133.607 21.393V14.967C133.607 14.372 133.046 13.862 132.4 13.862C131.737 13.862 131.227 14.372 131.227 14.967V24.997C131.227 25.626 131.737 26.153 132.485 26.153ZM142.05 17.619C142.05 19.302 142.934 20.407 144.396 20.883L142.084 24.385C141.948 24.589 141.88 24.895 141.88 25.082C141.88 25.677 142.662 26.136 143.121 26.136C143.546 26.136 143.903 25.949 144.124 25.609L146.963 21.138H147.796V25.031C147.796 25.626 148.357 26.153 149.003 26.153C149.666 26.153 150.176 25.643 150.176 25.031V15.239C150.176 14.576 149.581 14.015 148.884 14.015H146.266C143.07 14.015 142.05 15.834 142.05 17.619ZM144.43 17.619C144.43 16.905 144.753 16.174 146.164 16.174H147.796V18.996H146.062C145.008 18.996 144.43 18.503 144.43 17.619Z" fill="#161C35"/>
</svg>
