<svg width="188" height="50" viewBox="0 0 188 50" fill="none" xmlns="http://www.w3.org/2000/svg">
<rect width="188" height="50" rx="25" fill="#FFD74B"/>
<path d="M33.1321 28.22H37.3921L38.0921 30.24C38.2921 30.8 38.9321 31.18 39.4521 31.18C40.2721 31.18 40.8921 30.66 40.8921 29.9C40.8921 29.8 40.8721 29.56 40.8321 29.46L36.9321 18.08C36.6521 17.28 36.2521 16.72 35.2921 16.72C34.3321 16.72 33.9321 17.3 33.6721 18.08L29.7721 29.46C29.7321 29.56 29.7121 29.8 29.7121 29.9C29.7121 30.66 30.3721 31.18 31.1521 31.18C31.6321 31.18 32.2721 30.82 32.4721 30.24L33.1321 28.22ZM36.6721 25.94H33.8721L34.9321 22.52C35.1121 21.94 35.2121 21.18 35.2921 20.56C35.3721 21.18 35.4721 21.94 35.6521 22.52L36.6721 25.94ZM45.2495 22.42V19.42H47.6895C48.7295 19.42 49.0895 20.1 49.0895 20.86C49.0895 21.94 48.2495 22.42 47.5495 22.42H45.2495ZM47.6095 24.98C48.6695 24.98 49.4695 25.62 49.4695 26.76C49.4695 27.8 48.8095 28.46 47.4895 28.46H45.2495V24.98H47.6095ZM47.3095 31C50.3895 31 52.2695 29.14 52.2695 26.8C52.2695 25.06 51.0295 24.16 49.7895 23.66C50.9895 23.08 51.8895 22.22 51.8895 20.82C51.8895 18.82 50.3895 16.9 47.3895 16.9H44.0095C43.1695 16.9 42.4495 17.52 42.4495 18.34V29.56C42.4495 30.34 43.1295 31 44.0095 31H47.3095ZM56.611 29.9C56.611 30.58 57.231 31.18 58.011 31.18C58.771 31.18 59.411 30.58 59.411 29.9V19.44H61.531C62.291 19.44 62.951 18.86 62.951 18.18C62.951 17.46 62.251 16.9 61.531 16.9H54.491C53.711 16.9 53.091 17.62 53.091 18.18C53.091 18.86 53.691 19.44 54.491 19.44H56.611V29.9ZM69.2035 31.18C72.6635 31.18 74.4035 28.84 74.4035 25.92V21.96C74.4035 19.12 72.9435 16.72 69.2035 16.72C65.4635 16.72 64.0035 19.12 64.0035 21.96V25.92C64.0035 28.84 65.7435 31.18 69.2035 31.18ZM69.2035 19.26C70.9635 19.26 71.6035 20.34 71.6035 21.96V25.92C71.6035 27.52 70.8435 28.64 69.2035 28.64C67.5635 28.64 66.8035 27.52 66.8035 25.92V21.96C66.8035 20.34 67.4435 19.26 69.2035 19.26ZM81.0705 26.2C84.1705 26.2 86.1705 24.54 86.1705 21.58C86.1705 19.14 84.8305 16.9 81.0705 16.9H78.1305C77.2905 16.9 76.5705 17.56 76.5705 18.34V29.86C76.5705 30.58 77.2305 31.18 77.9705 31.18C78.7305 31.18 79.3705 30.56 79.3705 29.86V26.2H81.0705ZM79.3705 19.44H81.0705C82.9505 19.44 83.3705 20.52 83.3705 21.56C83.3705 23 82.5705 23.66 81.0705 23.66H79.3705V19.44ZM89.4568 31.18C89.9768 31.18 90.5368 30.9 90.7968 30.48L95.4368 22.4V29.88C95.4368 30.58 96.0968 31.18 96.8568 31.18C97.6368 31.18 98.2368 30.58 98.2368 29.88V18.08C98.2368 17.3 97.6168 16.72 96.7768 16.72C96.2368 16.72 95.6968 17.02 95.4168 17.46C93.6368 20.54 92.6168 22.36 90.7768 25.58V18.02C90.7768 17.32 90.1168 16.72 89.3568 16.72C88.5768 16.72 87.9768 17.32 87.9768 18.02V29.82C87.9768 30.56 88.5768 31.18 89.4568 31.18ZM109.39 26.94C109.39 25.32 108.39 24.34 106.79 23.7C108.25 22.96 109.03 22.02 109.03 20.68C109.03 18.84 107.53 16.72 104.57 16.72C102.71 16.72 100.13 17.56 100.13 18.88C100.13 19.54 100.77 20.04 101.41 20.04C101.97 20.04 102.41 19.66 102.87 19.46C103.31 19.26 103.87 19.14 104.41 19.14C105.83 19.14 106.31 19.98 106.31 20.72C106.31 21.98 104.89 22.56 103.55 22.6C102.95 22.62 102.17 22.66 102.17 23.8C102.17 24.96 102.95 25.04 103.71 25.08C105.25 25.18 106.61 25.54 106.61 26.88C106.61 27.92 105.79 28.76 104.29 28.76C102.75 28.76 102.07 27.86 101.21 27.86C100.53 27.86 99.9098 28.4 99.9098 29.06C99.9098 30.48 102.73 31.18 104.49 31.18C107.49 31.18 109.39 29.16 109.39 26.94ZM113.855 28.22H118.115L118.815 30.24C119.015 30.8 119.655 31.18 120.175 31.18C120.995 31.18 121.615 30.66 121.615 29.9C121.615 29.8 121.595 29.56 121.555 29.46L117.655 18.08C117.375 17.28 116.975 16.72 116.015 16.72C115.055 16.72 114.655 17.3 114.395 18.08L110.495 29.46C110.455 29.56 110.435 29.8 110.435 29.9C110.435 30.66 111.095 31.18 111.875 31.18C112.355 31.18 112.995 30.82 113.195 30.24L113.855 28.22ZM117.395 25.94H114.595L115.655 22.52C115.835 21.94 115.935 21.18 116.015 20.56C116.095 21.18 116.195 21.94 116.375 22.52L117.395 25.94ZM133.032 18.02C133.032 17.32 132.392 16.72 131.632 16.72C130.892 16.72 130.232 17.32 130.232 18.02V28.46H125.972V18.02C125.972 17.32 125.332 16.72 124.572 16.72C123.792 16.72 123.172 17.32 123.172 18.02V29.7C123.172 30.4 123.792 31 124.572 31H131.832V32.84C131.832 33.54 132.492 34.14 133.232 34.14C133.972 34.14 134.632 33.54 134.632 32.84V29.74C134.632 29.06 133.972 28.46 133.232 28.46H133.032V18.02ZM137.523 31.18C138.043 31.18 138.603 30.9 138.863 30.48L143.503 22.4V29.88C143.503 30.58 144.163 31.18 144.923 31.18C145.703 31.18 146.303 30.58 146.303 29.88V18.08C146.303 17.3 145.683 16.72 144.843 16.72C144.303 16.72 143.763 17.02 143.483 17.46C141.703 20.54 140.683 22.36 138.843 25.58V18.02C138.843 17.32 138.183 16.72 137.423 16.72C136.643 16.72 136.043 17.32 136.043 18.02V29.82C136.043 30.56 136.643 31.18 137.523 31.18ZM148.776 21.14C148.776 23.12 149.816 24.42 151.536 24.98L148.816 29.1C148.656 29.34 148.576 29.7 148.576 29.92C148.576 30.62 149.496 31.16 150.036 31.16C150.536 31.16 150.956 30.94 151.216 30.54L154.556 25.28H155.536V29.86C155.536 30.56 156.196 31.18 156.956 31.18C157.736 31.18 158.336 30.58 158.336 29.86V18.34C158.336 17.56 157.636 16.9 156.816 16.9H153.736C149.976 16.9 148.776 19.04 148.776 21.14ZM151.576 21.14C151.576 20.3 151.956 19.44 153.616 19.44H155.536V22.76H153.496C152.256 22.76 151.576 22.18 151.576 21.14Z" fill="#161C35"/>
</svg>
