<svg width="270" height="50" viewBox="0 0 270 50" fill="none" xmlns="http://www.w3.org/2000/svg">
<rect width="270" height="50" rx="25" fill="#FFD74B"/>
<path d="M81.3373 28.637H84.9583L85.5533 30.354C85.7233 30.83 86.2673 31.153 86.7093 31.153C87.4063 31.153 87.9333 30.711 87.9333 30.065C87.9333 29.98 87.9163 29.776 87.8823 29.691L84.5673 20.018C84.3293 19.338 83.9893 18.862 83.1733 18.862C82.3573 18.862 82.0173 19.355 81.7963 20.018L78.4813 29.691C78.4473 29.776 78.4303 29.98 78.4303 30.065C78.4303 30.711 78.9913 31.153 79.6543 31.153C80.0623 31.153 80.6063 30.847 80.7763 30.354L81.3373 28.637ZM84.3463 26.699H81.9663L82.8673 23.792C83.0203 23.299 83.1053 22.653 83.1733 22.126C83.2413 22.653 83.3263 23.299 83.4793 23.792L84.3463 26.699ZM91.637 23.707V21.157H93.711C94.595 21.157 94.901 21.735 94.901 22.381C94.901 23.299 94.187 23.707 93.592 23.707H91.637ZM93.643 25.883C94.544 25.883 95.224 26.427 95.224 27.396C95.224 28.28 94.663 28.841 93.541 28.841H91.637V25.883H93.643ZM93.388 31C96.006 31 97.604 29.419 97.604 27.43C97.604 25.951 96.55 25.186 95.496 24.761C96.516 24.268 97.281 23.537 97.281 22.347C97.281 20.647 96.006 19.015 93.456 19.015H90.583C89.869 19.015 89.257 19.542 89.257 20.239V29.776C89.257 30.439 89.835 31 90.583 31H93.388ZM101.294 30.065C101.294 30.643 101.821 31.153 102.484 31.153C103.13 31.153 103.674 30.643 103.674 30.065V21.174H105.476C106.122 21.174 106.683 20.681 106.683 20.103C106.683 19.491 106.088 19.015 105.476 19.015H99.4924C98.8294 19.015 98.3024 19.627 98.3024 20.103C98.3024 20.681 98.8124 21.174 99.4924 21.174H101.294V30.065ZM111.998 31.153C114.939 31.153 116.418 29.164 116.418 26.682V23.316C116.418 20.902 115.177 18.862 111.998 18.862C108.819 18.862 107.578 20.902 107.578 23.316V26.682C107.578 29.164 109.057 31.153 111.998 31.153ZM111.998 21.021C113.494 21.021 114.038 21.939 114.038 23.316V26.682C114.038 28.042 113.392 28.994 111.998 28.994C110.604 28.994 109.958 28.042 109.958 26.682V23.316C109.958 21.939 110.502 21.021 111.998 21.021ZM122.085 26.92C124.72 26.92 126.42 25.509 126.42 22.993C126.42 20.919 125.281 19.015 122.085 19.015H119.586C118.872 19.015 118.26 19.576 118.26 20.239V30.031C118.26 30.643 118.821 31.153 119.45 31.153C120.096 31.153 120.64 30.626 120.64 30.031V26.92H122.085ZM120.64 21.174H122.085C123.683 21.174 124.04 22.092 124.04 22.976C124.04 24.2 123.36 24.761 122.085 24.761H120.64V21.174ZM129.213 31.153C129.655 31.153 130.131 30.915 130.352 30.558L134.296 23.69V30.048C134.296 30.643 134.857 31.153 135.503 31.153C136.166 31.153 136.676 30.643 136.676 30.048V20.018C136.676 19.355 136.149 18.862 135.435 18.862C134.976 18.862 134.517 19.117 134.279 19.491C132.766 22.109 131.899 23.656 130.335 26.393V19.967C130.335 19.372 129.774 18.862 129.128 18.862C128.465 18.862 127.955 19.372 127.955 19.967V29.997C127.955 30.626 128.465 31.153 129.213 31.153ZM146.156 27.549C146.156 26.172 145.306 25.339 143.946 24.795C145.187 24.166 145.85 23.367 145.85 22.228C145.85 20.664 144.575 18.862 142.059 18.862C140.478 18.862 138.285 19.576 138.285 20.698C138.285 21.259 138.829 21.684 139.373 21.684C139.849 21.684 140.223 21.361 140.614 21.191C140.988 21.021 141.464 20.919 141.923 20.919C143.13 20.919 143.538 21.633 143.538 22.262C143.538 23.333 142.331 23.826 141.192 23.86C140.682 23.877 140.019 23.911 140.019 24.88C140.019 25.866 140.682 25.934 141.328 25.968C142.637 26.053 143.793 26.359 143.793 27.498C143.793 28.382 143.096 29.096 141.821 29.096C140.512 29.096 139.934 28.331 139.203 28.331C138.625 28.331 138.098 28.79 138.098 29.351C138.098 30.558 140.495 31.153 141.991 31.153C144.541 31.153 146.156 29.436 146.156 27.549ZM149.952 28.637H153.573L154.168 30.354C154.338 30.83 154.882 31.153 155.324 31.153C156.021 31.153 156.548 30.711 156.548 30.065C156.548 29.98 156.531 29.776 156.497 29.691L153.182 20.018C152.944 19.338 152.604 18.862 151.788 18.862C150.972 18.862 150.632 19.355 150.411 20.018L147.096 29.691C147.062 29.776 147.045 29.98 147.045 30.065C147.045 30.711 147.606 31.153 148.269 31.153C148.677 31.153 149.221 30.847 149.391 30.354L149.952 28.637ZM152.961 26.699H150.581L151.482 23.792C151.635 23.299 151.72 22.653 151.788 22.126C151.856 22.653 151.941 23.299 152.094 23.792L152.961 26.699ZM166.252 19.967C166.252 19.372 165.708 18.862 165.062 18.862C164.433 18.862 163.872 19.372 163.872 19.967V28.841H160.251V19.967C160.251 19.372 159.707 18.862 159.061 18.862C158.398 18.862 157.871 19.372 157.871 19.967V29.895C157.871 30.49 158.398 31 159.061 31H165.232V32.564C165.232 33.159 165.793 33.669 166.422 33.669C167.051 33.669 167.612 33.159 167.612 32.564V29.929C167.612 29.351 167.051 28.841 166.422 28.841H166.252V19.967ZM170.07 31.153C170.512 31.153 170.988 30.915 171.209 30.558L175.153 23.69V30.048C175.153 30.643 175.714 31.153 176.36 31.153C177.023 31.153 177.533 30.643 177.533 30.048V20.018C177.533 19.355 177.006 18.862 176.292 18.862C175.833 18.862 175.374 19.117 175.136 19.491C173.623 22.109 172.756 23.656 171.192 26.393V19.967C171.192 19.372 170.631 18.862 169.985 18.862C169.322 18.862 168.812 19.372 168.812 19.967V29.997C168.812 30.626 169.322 31.153 170.07 31.153ZM179.635 22.619C179.635 24.302 180.519 25.407 181.981 25.883L179.669 29.385C179.533 29.589 179.465 29.895 179.465 30.082C179.465 30.677 180.247 31.136 180.706 31.136C181.131 31.136 181.488 30.949 181.709 30.609L184.548 26.138H185.381V30.031C185.381 30.626 185.942 31.153 186.588 31.153C187.251 31.153 187.761 30.643 187.761 30.031V20.239C187.761 19.576 187.166 19.015 186.469 19.015H183.851C180.655 19.015 179.635 20.834 179.635 22.619ZM182.015 22.619C182.015 21.905 182.338 21.174 183.749 21.174H185.381V23.996H183.647C182.593 23.996 182.015 23.503 182.015 22.619Z" fill="#161C35"/>
</svg>
